<svg width="131" height="208" viewBox="0 0 131 208" fill="none" xmlns="http://www.w3.org/2000/svg">
<path d="M33.1894 143.229C36.0794 144.287 53.7702 128.253 55.5524 128.143C57.3437 128.033 40.6736 145.567 41.1338 145.161L41.3688 145.427C40.8232 145.908 39.5699 146.402 37.7436 146.514C35.908 146.626 33.4727 146.355 30.5413 145.283L33.1894 143.229Z" fill="#CA0202"/>
<path d="M107.468 95.5619C103.763 95.2236 100.73 96.3897 96.8329 98.4138C95.7953 98.9527 94.6959 99.5526 93.5051 100.202C90.0754 102.074 85.8869 104.36 80.2278 106.794C72.599 110.077 67.6442 111.756 63.649 112.484C59.66 113.212 56.6197 112.992 52.8124 112.461C46.7535 111.616 41.591 107.994 39.9521 106.472L21.653 111.618C16.3284 119.959 27.8649 142.52 31.4146 145.537C35.208 146.066 44.3975 138.212 64.8101 120.765L65.314 120.334C76.71 113.137 77.4038 112.588 78.6291 111.618C79.2167 111.153 79.9265 110.591 81.9975 109.153C86.595 106.373 89.5823 104.301 92.1074 102.55C93.7739 101.395 95.239 100.379 96.8329 99.391C100.842 96.9062 97.9383 106.036 101.698 106.472C101.838 106.496 116.962 115.715 115.187 112.875C116.319 113.06 95.6637 101.977 97.7935 100.202C99.5482 101.003 94.5399 108.884 96.8329 111.618C97.7771 112.744 93.4563 112.952 94.0664 114.832C94.6758 116.71 89.3391 114.417 89.6293 116.607C90.2101 120.988 87.8505 119.292 87.322 122.286C86.7938 125.28 85.9191 129.351 84.1273 132.758C82.3358 136.164 73.9074 135.79 71.7034 138.082C66.0819 143.929 66.3843 139.015 59.2796 144.472C52.1714 149.932 55.0275 143.932 50.4054 148.554C46.3469 152.613 50.2329 166.088 48.2756 169.852C47.2959 171.736 52.2256 181.441 50.5828 185.471C49.7613 187.486 54.8166 192.436 54.31 193.99C54.0568 194.766 57.9746 202.678 57.8597 203.219C57.8023 203.49 58.762 206.213 58.7471 206.414C58.7325 206.611 59.4969 207.863 59.5409 208L59.8785 207.891C59.8559 207.821 59.8455 207.699 59.8591 207.516C59.8724 207.337 59.9075 207.114 59.9631 206.853C60.0742 206.329 60.2648 205.662 60.5163 204.89C61.0191 203.348 61.7604 201.405 62.5806 199.393C64.2213 195.368 66.1712 191.085 67.1439 189.214C69.0912 185.469 74.8016 176.776 78.8259 172.752C83.433 168.145 87.6805 164.556 94.7821 159.101C101.887 153.643 106.731 149.864 112.373 143.997C114.606 141.675 116.834 138.421 118.636 134.994C120.438 131.567 121.822 127.955 122.359 124.914C122.895 121.874 122.927 117.282 122.343 112.875C122.051 110.67 121.604 108.507 120.986 106.603C120.369 104.702 119.578 103.049 118.593 101.874C116.271 99.1058 114.195 97.6384 112.385 96.8123C110.788 96.0831 109.403 95.8573 108.271 95.6725C108.122 95.6482 107.978 95.6247 107.838 95.6008L107.833 95.6001L107.828 95.5994L107.468 95.5619Z" fill="url(#paint0_linear_1071_789)"/>
<path d="M107.468 95.5619C103.763 95.2236 100.73 96.3897 96.8329 98.4138C95.7953 98.9527 94.6959 99.5526 93.5051 100.202C90.0754 102.074 85.8869 104.36 80.2278 106.794C72.599 110.077 67.6442 111.756 63.649 112.484C59.66 113.212 56.6197 112.992 52.8124 112.461C46.7535 111.616 41.591 107.994 39.9521 106.472L21.653 111.618C16.3284 119.959 27.8649 142.52 31.4146 145.537C35.208 146.066 44.3975 138.212 64.8101 120.765L65.314 120.334C76.71 113.137 77.4038 112.588 78.6291 111.618C79.2167 111.153 79.9265 110.591 81.9975 109.153C86.595 106.373 89.5823 104.301 92.1074 102.55C93.7739 101.395 95.239 100.379 96.8329 99.391C100.842 96.9062 97.9383 106.036 101.698 106.472C101.838 106.496 116.962 115.715 115.187 112.875C116.319 113.06 95.6637 101.977 97.7935 100.202C99.5482 101.003 94.5399 108.884 96.8329 111.618C97.7771 112.744 93.4563 112.952 94.0664 114.832C94.6758 116.71 89.3391 114.417 89.6293 116.607C90.2101 120.988 87.8505 119.292 87.322 122.286C86.7938 125.28 85.9191 129.351 84.1273 132.758C82.3358 136.164 73.9074 135.79 71.7034 138.082C66.0819 143.929 66.3843 139.015 59.2796 144.472C52.1714 149.932 55.0275 143.932 50.4054 148.554C46.3469 152.613 50.2329 166.088 48.2756 169.852C47.2959 171.736 52.2256 181.441 50.5828 185.471C49.7613 187.486 54.8166 192.436 54.31 193.99C54.0568 194.766 57.9746 202.678 57.8597 203.219C57.8023 203.49 58.762 206.213 58.7471 206.414C58.7325 206.611 59.4969 207.863 59.5409 208L59.8785 207.891C59.8559 207.821 59.8455 207.699 59.8591 207.516C59.8724 207.337 59.9075 207.114 59.9631 206.853C60.0742 206.329 60.2648 205.662 60.5163 204.89C61.0191 203.348 61.7604 201.405 62.5806 199.393C64.2213 195.368 66.1712 191.085 67.1439 189.214C69.0912 185.469 74.8016 176.776 78.8259 172.752C83.433 168.145 87.6805 164.556 94.7821 159.101C101.887 153.643 106.731 149.864 112.373 143.997C114.606 141.675 116.834 138.421 118.636 134.994C120.438 131.567 121.822 127.955 122.359 124.914C122.895 121.874 122.927 117.282 122.343 112.875C122.051 110.67 121.604 108.507 120.986 106.603C120.369 104.702 119.578 103.049 118.593 101.874C116.271 99.1058 114.195 97.6384 112.385 96.8123C110.788 96.0831 109.403 95.8573 108.271 95.6725C108.122 95.6482 107.978 95.6247 107.838 95.6008L107.833 95.6001L107.828 95.5994L107.468 95.5619Z" fill="url(#paint1_linear_1071_789)" fill-opacity="0.2"/>
<path d="M120.157 104.361C122.996 109.33 126.368 128.498 114.477 141.455C100.101 155.121 89.8068 154.234 82.175 155.121C73.8333 156.091 66.2015 157.428 62.2968 159.381C60.3733 160.342 57.5048 163.818 55.9074 166.48C55.0411 167.924 52.7746 171.97 52.7746 175.697C52.7746 182.619 53.4226 188.843 54.4875 192.393C54.8759 193.687 56.6173 198.427 59.5007 207.135L59.2088 207.337C54.0623 199.883 49.8143 194.796 46.3887 190.147C42.9664 185.503 40.3805 181.314 38.5974 175.697C36.8128 170.076 36.5915 163.747 37.3928 157.915C38.194 152.084 40.0198 146.734 42.344 143.069C44.6622 139.413 48.5782 135.009 52.7746 130.902C56.9724 126.793 61.4607 122.971 64.9306 120.479C70.4724 116.501 95.1313 97.7936 103.473 96.0189C111.815 94.2441 117.317 99.391 120.157 104.361Z" fill="url(#paint2_linear_1071_789)"/>
<path d="M118.737 0.177484L119.802 3.01723L121.576 7.27684C124.416 15.0861 125.297 23.2709 118.595 27.2635C114.417 29.7525 121.907 26.5573 113.235 30.8822C104.558 35.2093 113.587 46.0141 107.733 49.1187C104.802 50.6727 82.9828 72.2342 79.7085 73.8867C76.4333 75.5395 50.6804 86.6134 47.3882 88.387C40.8017 91.9352 35.2145 85.6502 30.5272 89.8068C28.1409 91.923 29.9433 108.03 26.0901 113.945C22.2357 119.861 16.4521 93.1304 15.6586 99.2135C13.9638 112.207 12.9563 108.798 10.649 115.719C12.9455 121.549 12.3495 121.435 17.0385 126.014C21.729 130.593 25.8963 143.625 30.6498 144.945L30.5548 145.287C25.7242 143.945 20.3746 140.463 15.6586 135.859C10.941 131.252 6.84279 125.508 4.52463 119.624C2.49607 114.474 -1.27574 105.827 0.431755 92.7357C1.23565 86.5724 4.71132 79.6235 8.57452 73.6932C12.4391 67.761 16.7087 62.8221 19.1258 60.6787C23.8451 56.4937 30.1605 52.6697 36.7522 49.1187C40.049 47.3426 43.4179 45.6335 46.693 43.9806C49.9688 42.3275 53.1503 40.7311 56.0768 39.1792C61.9363 36.0719 71.0358 31.5888 79.7085 27.2635C88.3855 22.9361 96.6313 18.7685 100.795 16.288C107.44 12.3293 115.245 3.78389 118.319 0L118.737 0.177484Z" fill="url(#paint3_linear_1071_789)"/>
<path d="M118.783 0.192383C119.045 0.593526 119.488 1.54524 120.038 2.88723C120.592 4.23552 121.26 5.99297 121.974 8.01762C123.403 12.0669 125.017 17.19 126.261 22.2552C128.874 32.8944 130.703 40.5118 130.291 47.001C129.877 53.5116 127.212 58.8753 120.888 65.0208C108.256 77.2969 94.372 81.9247 75.7505 89.5507C66.4271 93.3688 59.3797 96.0724 53.7037 98.6221C48.0312 101.17 43.7438 103.559 39.9456 106.739C32.3178 113.125 27.5575 118.588 26.6963 125.968C25.7084 134.437 28.8741 141.85 30.9286 145.02L30.7799 145.116L30.6308 145.213C26.6963 143.229 8.76176 126.774 9.76158 118.204C10.6398 110.677 6.74034 105.015 14.3761 98.6221C18.2098 95.4126 12.9494 97.8633 18.6358 95.3088C24.3188 92.7559 44.2458 68.8344 53.5581 65.0208C72.2083 57.3831 78.4785 48.9557 91.0492 36.7392C97.3269 30.6383 107.504 41.3656 107.91 34.9643C103.828 31.0597 106.845 37.2716 112.702 27.155C111.462 22.1036 123.065 12.1765 121.64 8.13548C120.927 6.1151 120.26 4.36338 119.71 3.02173C119.157 1.67379 118.726 0.754448 118.486 0.386506L118.634 0.289444L118.783 0.192383Z" fill="url(#paint4_linear_1071_789)"/>
<defs>
<linearGradient id="paint0_linear_1071_789" x1="20.2715" y1="116.173" x2="67.0888" y2="127.433" gradientUnits="userSpaceOnUse">
<stop stop-color="#A60101"/>
<stop offset="1" stop-color="#F70001"/>
</linearGradient>
<linearGradient id="paint1_linear_1071_789" x1="103.828" y1="99.391" x2="54.6318" y2="196.126" gradientUnits="userSpaceOnUse">
<stop stop-color="#BA0101"/>
<stop offset="1" stop-color="#FF0000"/>
</linearGradient>
<linearGradient id="paint2_linear_1071_789" x1="103.631" y1="107.688" x2="50.0504" y2="191.505" gradientUnits="userSpaceOnUse">
<stop stop-color="#A50000"/>
<stop offset="0.42612" stop-color="#EE0001"/>
<stop offset="0.742155" stop-color="#F10102"/>
<stop offset="1" stop-color="#F90102"/>
</linearGradient>
<linearGradient id="paint3_linear_1071_789" x1="70.3665" y1="0" x2="70.3665" y2="145.287" gradientUnits="userSpaceOnUse">
<stop stop-color="#A50000"/>
<stop offset="1" stop-color="#FA0001"/>
</linearGradient>
<linearGradient id="paint4_linear_1071_789" x1="78.2519" y1="0.192383" x2="78.2519" y2="145.213" gradientUnits="userSpaceOnUse">
<stop stop-color="#A50000"/>
<stop offset="1" stop-color="#FA0001"/>
</linearGradient>
</defs>
</svg>
