<svg width="20" height="20" viewBox="0 0 20 20" fill="none" xmlns="http://www.w3.org/2000/svg">
<path d="M6.09375 14.6875V13.9062C6.09375 11.7489 7.84264 10 10 10C12.1573 10 13.9062 11.7489 13.9062 13.9062V14.6875" stroke="white" stroke-linecap="round" stroke-linejoin="round"/>
<path d="M1.40625 14.6875V13.9062C1.40625 12.6118 2.45559 11.5625 3.75 11.5625" stroke="white" stroke-linecap="round" stroke-linejoin="round"/>
<path d="M18.5938 14.6875V13.9062C18.5938 12.6118 17.5445 11.5625 16.25 11.5625" stroke="white" stroke-linecap="round" stroke-linejoin="round"/>
<path d="M10 10C11.2945 10 12.3438 8.9507 12.3438 7.65625C12.3438 6.36184 11.2945 5.3125 10 5.3125C8.70555 5.3125 7.65625 6.36184 7.65625 7.65625C7.65625 8.9507 8.70555 10 10 10Z" stroke="white" stroke-linecap="round" stroke-linejoin="round"/>
<path d="M3.75 11.5625C4.61295 11.5625 5.3125 10.863 5.3125 10C5.3125 9.13703 4.61295 8.4375 3.75 8.4375C2.88705 8.4375 2.1875 9.13703 2.1875 10C2.1875 10.863 2.88705 11.5625 3.75 11.5625Z" stroke="white" stroke-linecap="round" stroke-linejoin="round"/>
<path d="M16.25 11.5625C17.113 11.5625 17.8125 10.863 17.8125 10C17.8125 9.13703 17.113 8.4375 16.25 8.4375C15.387 8.4375 14.6875 9.13703 14.6875 10C14.6875 10.863 15.387 11.5625 16.25 11.5625Z" stroke="white" stroke-linecap="round" stroke-linejoin="round"/>
</svg>
