<svg width="115" height="34" viewBox="0 0 115 34" fill="none" xmlns="http://www.w3.org/2000/svg">
<path d="M23.7372 21.0674C24.3875 20.5194 25.5048 19.6508 26.0133 18.1082C26.5218 16.5657 25.8081 15.3249 24.6043 15.0395C23.6798 14.8203 15.3912 15.0395 13.4135 14.6011C10.7667 14.0144 8.7795 13.3407 7.26205 12.1899C5.74461 11.0392 5.20267 8.90197 5.20267 7.80593C5.20267 7.03879 4.67194 4.18924 7.58722 1.88767C9.75053 0.793943 11.7063 0.148787 13.3318 0.0244872C15.608 -0.149563 17.7002 0.656612 18.1009 0.791673C19.2544 1.18046 22.3739 2.14654 25.5048 3.29292C28.6384 4.44028 32.2755 5.9573 36.078 7.42576C39.884 8.89555 43.8624 10.3195 47.6936 11.287C49.3169 11.287 56.516 9.80412 59.7223 9.44996C62.9323 9.09538 66.7675 7.8547 70.4528 6.8196C72.4038 6.27161 74.2564 5.32495 76.1974 4.51803C78.1379 3.71129 80.1554 3.09726 82.1588 2.32607C87.795 0.462892 96.8933 -0.639842 104.951 1.78251C108.053 2.71504 110.751 4.22916 112.58 5.88625C113.495 6.71472 114.195 7.58214 114.62 8.43398C115.044 9.28593 115.001 10.1075 114.997 10.9023C114.992 12.0803 113.528 15.0844 111.857 16.6834C110.196 18.2743 107.739 19.6276 103.57 22.365C102.251 23.369 101.088 24.8989 101.018 25.9993C100.949 27.1019 102.969 28.0817 104.378 28.8489C105.896 29.5065 106.871 29.9449 108.389 30.6024C110.015 31.1504 111.403 30.8749 112.399 31.3696C112.399 31.3696 112.399 31.26 111.966 31.808C111.532 32.356 110.617 32.7944 110.665 33.2328C110.713 33.6712 110.882 34 110.882 34C109.891 33.5083 107.485 32.6332 106.094 31.8664C104.703 31.0997 103.295 30.2061 102.251 29.2114C101.21 28.219 100.513 27.1076 100.589 25.9064C100.665 24.7031 101.452 23.369 102.211 22.273C103.728 20.5194 106.113 18.2178 108.931 15.8067C110.934 14.0929 114.153 12.114 114.35 11.3131C114.512 10.6555 114.242 9.55955 113.917 9.12115C113.592 8.68276 112.508 8.02517 111.958 7.58679C110.035 6.0524 108.027 4.89474 104.951 3.97003C96.9678 1.57006 88.7548 2.09397 80.7497 5.17561C78.7494 5.94563 76.8374 6.77996 74.8967 7.58677C72.9564 8.39342 70.9005 9.16769 69.0437 9.88834C65.3314 11.3292 61.6725 12.2698 58.4335 12.6276C55.1906 12.9858 51.4842 12.47 47.6411 11.4995C44.9814 11.287 41.7297 11.287 37.2858 10.3268C33.4741 8.85476 30.555 7.74744 27.4224 6.6004C25.5334 5.90873 22.8717 3.91719 20.8107 2.87406C20.6616 2.79863 19.8666 2.28719 19.7268 2.21645C19.0764 1.88766 18.5071 1.6927 18.2093 1.55886C17.9115 1.42502 16.3667 1.33966 15.8248 1.44926C15.051 1.60574 9.40928 2.83969 8.00956 3.78354C6.15461 5.03438 5.52784 6.5858 5.52783 7.80593C5.52783 9.28696 6.47845 10.2657 7.95748 11.0128C9.43868 11.761 11.4169 12.2593 13.4135 12.7907C15.4024 13.32 23.412 14.0531 25.5048 14.6011C26.4093 14.8379 28.5063 16.2829 28.5063 18.1082C28.2895 21.725 23.0868 23.1498 21.6778 23.6977C20.7999 24.0127 19.3967 24.4394 17.6674 24.4649C12.7776 24.5372 5.60495 22.1821 0 21.6154C0 21.6154 1.08389 21.5058 1.30067 21.3962C1.51744 21.2866 1.951 21.0674 2.16778 20.8482C2.38456 20.629 2.9265 20.3002 2.9265 19.7522C2.9265 19.2042 2.70972 17.889 2.70972 17.889C6.06978 19.533 10.9953 21.7696 12.1396 22.1634C13.4135 22.6018 17.3411 23.8868 19.1848 23.3689C21.3526 22.6018 23.0868 21.6154 23.7372 21.0674Z" fill="url(#paint0_linear_1191_819)"/>
<path d="M26.6638 23.3691V5.52466H19.8379V3.729H35.543V5.52466H28.7171V23.3691H26.6638Z" fill="white"/>
<path d="M34.7397 23.3691L43.6189 3.729H45.6445L54.5237 23.3691H52.3594L44.2016 4.93546H45.0341L36.8763 23.3691H34.7397ZM38.2359 18.1224L38.8464 16.4389H50.1396L50.7501 18.1224H38.2359Z" fill="white"/>
<path d="M60.5354 23.3691V5.52466H53.7095V3.729H69.4146V5.52466H62.5887V23.3691H60.5354Z" fill="white"/>
<path d="M80.859 23.5373C79.3976 23.5373 78.0472 23.2941 76.8078 22.8078C75.5684 22.3028 74.4955 21.6013 73.5891 20.7035C72.6827 19.8057 71.9705 18.7489 71.4525 17.5331C70.9531 16.3172 70.7034 14.9892 70.7034 13.5489C70.7034 12.1087 70.9531 10.7806 71.4525 9.56479C71.9705 8.34898 72.6827 7.29216 73.5891 6.39433C74.514 5.49649 75.5962 4.80442 76.8356 4.31809C78.075 3.81306 79.4253 3.56055 80.8867 3.56055C82.2926 3.56055 83.6152 3.80371 84.8546 4.29004C86.094 4.75766 87.1392 5.46844 87.9901 6.42238L86.6859 7.74107C85.8905 6.91806 85.0118 6.32886 84.0499 5.97347C83.088 5.59937 82.0521 5.41232 80.9422 5.41232C79.7768 5.41232 78.6946 5.61808 77.6957 6.02958C76.6968 6.42238 75.8274 6.99288 75.0875 7.74107C74.3475 8.47056 73.7648 9.33098 73.3394 10.3224C72.9324 11.295 72.7289 12.3705 72.7289 13.5489C72.7289 14.7273 72.9324 15.8122 73.3394 16.8036C73.7648 17.7762 74.3475 18.6366 75.0875 19.3848C75.8274 20.1143 76.6968 20.6848 77.6957 21.0963C78.6946 21.4891 79.7768 21.6855 80.9422 21.6855C82.0521 21.6855 83.088 21.4985 84.0499 21.1244C85.0118 20.7503 85.8905 20.1517 86.6859 19.3287L87.9901 20.6474C87.1392 21.6014 86.094 22.3215 84.8546 22.8078C83.6152 23.2941 82.2833 23.5373 80.859 23.5373Z" fill="white"/>
<path d="M106.303 23.3691V3.729H108.329V23.3691H106.303ZM92.0962 23.3691V3.729H94.1495V23.3691H92.0962ZM93.9275 14.3066V12.4829H106.497V14.3066H93.9275Z" fill="white"/>
<path d="M114.228 13.2859C113.642 14.4836 112.781 15.7987 111.857 16.6834C110.196 18.2743 107.739 19.6276 103.57 22.365C102.251 23.369 101.088 24.8989 101.018 25.9993C100.949 27.1019 102.969 28.0817 104.378 28.8489C105.896 29.5065 106.871 29.9449 108.389 30.6024C110.006 31.1474 111.387 30.8782 112.383 31.3617C112.35 31.3707 112.253 31.4452 111.966 31.808C111.532 32.356 110.617 32.7944 110.665 33.2328C110.713 33.6712 110.882 34 110.882 34C109.891 33.5083 107.485 32.6332 106.094 31.8664C104.703 31.0997 103.295 30.2061 102.251 29.2114C101.21 28.219 100.513 27.1076 100.589 25.9064C100.665 24.7031 101.452 23.369 102.211 22.273C103.728 20.5194 106.113 18.2178 108.931 15.8067C109.904 14.9739 111.164 14.0783 112.226 13.2859H114.228Z" fill="url(#paint1_linear_1191_819)"/>
<path d="M112.383 31.3616C112.399 31.3571 112.399 31.3695 112.399 31.3695C112.394 31.3668 112.388 31.3643 112.383 31.3616Z" fill="url(#paint2_linear_1191_819)"/>
<path d="M13.3318 0.0244872C15.608 -0.149563 17.7002 0.656612 18.1009 0.791673C18.3222 0.866253 18.6159 0.961907 18.9681 1.07617V1.86947C18.6481 1.73573 18.3827 1.63679 18.2093 1.55886C17.9115 1.42502 16.3667 1.33966 15.8248 1.44926C15.051 1.60574 9.40928 2.83969 8.00956 3.78354C6.15461 5.03438 5.52784 6.5858 5.52783 7.80593C5.52783 9.28696 6.47845 10.2657 7.95748 11.0128C9.43868 11.761 11.4169 12.2593 13.4135 12.7907C15.4024 13.32 23.412 14.0531 25.5048 14.6011C26.4093 14.8379 28.5063 16.2829 28.5063 18.1082C28.2895 21.725 23.0868 23.1498 21.6778 23.6977C20.7999 24.0127 19.3967 24.4394 17.6674 24.4649C12.7776 24.5372 5.60495 22.1821 0 21.6154C0 21.6154 1.08389 21.5058 1.30067 21.3962C1.51744 21.2866 1.951 21.0674 2.16778 20.8482C2.38456 20.629 2.9265 20.3002 2.9265 19.7522C2.9265 19.2052 2.71047 17.8936 2.70972 17.889C6.06978 19.533 10.9953 21.7696 12.1396 22.1634C13.4135 22.6018 17.3411 23.8868 19.1848 23.3689C21.3526 22.6018 23.0868 21.6154 23.7372 21.0674C24.3875 20.5194 25.5048 19.6508 26.0133 18.1082C26.5218 16.5657 25.8081 15.3249 24.6043 15.0395C23.6798 14.8203 15.3912 15.0395 13.4135 14.6011C10.7667 14.0144 8.7795 13.3407 7.26205 12.1899C5.74461 11.0392 5.20267 8.90197 5.20267 7.80593C5.20267 7.03879 4.67194 4.18924 7.58722 1.88767C9.75053 0.793943 11.7063 0.148787 13.3318 0.0244872Z" fill="url(#paint3_linear_1191_819)"/>
<defs>
<linearGradient id="paint0_linear_1191_819" x1="58.0294" y1="0.28581" x2="58.0294" y2="34.3288" gradientUnits="userSpaceOnUse">
<stop stop-color="#DABFBF"/>
<stop offset="1" stop-color="#746565"/>
</linearGradient>
<linearGradient id="paint1_linear_1191_819" x1="58.0296" y1="0.28589" x2="58.0296" y2="34.3289" gradientUnits="userSpaceOnUse">
<stop stop-color="#DABFBF"/>
<stop offset="1" stop-color="#746565"/>
</linearGradient>
<linearGradient id="paint2_linear_1191_819" x1="58.0334" y1="0.285002" x2="58.0334" y2="34.3289" gradientUnits="userSpaceOnUse">
<stop stop-color="#DA1B1B"/>
<stop offset="1" stop-color="#740F0F"/>
</linearGradient>
<linearGradient id="paint3_linear_1191_819" x1="58.0294" y1="0.285901" x2="58.0294" y2="34.3289" gradientUnits="userSpaceOnUse">
<stop stop-color="#DAB4B4"/>
<stop offset="1" stop-color="#746565"/>
</linearGradient>
</defs>
</svg>
