<svg width="149" height="32" viewBox="0 0 149 32" fill="none" xmlns="http://www.w3.org/2000/svg">
<path d="M10.0199 32C8.17951 32 6.63222 31.7128 5.37803 31.1385C4.13747 30.5641 3.11503 29.7846 2.31071 28.8L0.0817951 31.7949H0V23.3846H0.0817951C0.313548 24.6017 0.667993 25.7299 1.14513 26.7692C1.62227 27.7949 2.24255 28.6906 3.00597 29.4564C3.78302 30.2222 4.71685 30.8171 5.80745 31.241C6.91169 31.665 8.20678 31.8769 9.69272 31.8769C11.1378 31.8769 12.4056 31.6171 13.4962 31.0974C14.5868 30.5778 15.4388 29.812 16.0523 28.8C16.6658 27.7744 16.9725 26.5162 16.9725 25.0256C16.9725 23.8222 16.6726 22.8034 16.0727 21.9692C15.4729 21.135 14.6822 20.4103 13.7007 19.7949C12.7191 19.1795 11.6354 18.6051 10.4493 18.0718C9.27693 17.5385 8.09772 16.9846 6.91169 16.4103C5.73929 15.8359 4.66232 15.1727 3.68078 14.4205C2.69924 13.6547 1.90855 12.7385 1.30872 11.6718C0.708891 10.6051 0.408975 9.31282 0.408975 7.79487C0.408975 6.2906 0.797502 4.97094 1.57456 3.8359C2.36524 2.68718 3.40131 1.79829 4.68277 1.16923C5.96423 0.526496 7.36156 0.205128 8.87477 0.205128C10.2653 0.205128 11.5195 0.423932 12.6373 0.86154C13.7552 1.29915 14.7095 1.98291 15.5002 2.91282L17.7086 0.205128H17.7904V8.61539H17.7086C17.436 6.71453 16.9111 5.15556 16.1341 3.93846C15.3707 2.72137 14.4028 1.82564 13.2304 1.25128C12.058 0.663248 10.7424 0.369231 9.28374 0.369231C7.32066 0.369231 5.8279 0.861539 4.80546 1.84615C3.78302 2.81709 3.2718 4.11624 3.2718 5.74359C3.2718 6.82393 3.5649 7.74701 4.1511 8.51282C4.7373 9.26496 5.50754 9.93504 6.46181 10.5231C7.41609 11.0974 8.46579 11.6513 9.61092 12.1846C10.7697 12.7043 11.9216 13.2718 13.0668 13.8872C14.2255 14.4889 15.2821 15.2 16.2363 16.0205C17.1906 16.841 17.9608 17.8325 18.547 18.9949C19.1332 20.1436 19.4263 21.5385 19.4263 23.1795C19.4263 24.9573 19.0446 26.5094 18.2812 27.8359C17.5178 29.1487 16.4272 30.1744 15.0094 30.9128C13.6053 31.6376 11.9421 32 10.0199 32Z" fill="white"/>
<path d="M25.4511 31.3846V31.3026H29.9498V0.697437H25.8396C24.6399 0.697437 23.6516 0.929916 22.8745 1.39487C22.0975 1.84616 21.484 2.48889 21.0341 3.32308C20.5842 4.14359 20.2639 5.11453 20.073 6.2359C19.8958 7.34359 19.8072 8.54701 19.8072 9.84615H19.7254V0.615384H44.0594V9.84615H43.9572C43.9572 8.54701 43.8618 7.34359 43.6709 6.2359C43.4937 5.11453 43.1801 4.14359 42.7303 3.32308C42.2804 2.48889 41.6601 1.84616 40.8694 1.39487C40.0924 0.929916 39.104 0.697437 37.9044 0.697437H33.8351V31.3026H38.3338V31.3846H25.4511Z" fill="white"/>
<path d="M149 0.615384V0.697437H145.299V31.3026H149V31.3846H137.344V31.3026H141.434V16.2462H127.938V31.3026H132.028V31.3846H120.372V31.3026H124.032V0.697437H120.372V0.615384H132.028V0.697437H127.938V16.1641H141.434V0.697437H137.344V0.615384H149Z" fill="white"/>
<path d="M50.8126 21.4154V21.3333H63.8181V21.4154H50.8126ZM58.2765 0L69.0938 31.3026H71.9976V31.3846H60.1373V31.3026H64.6156L56.3543 5.62051L47.3977 31.3026H52.3668V31.3846H43.3693V31.3026H47.3159L58.1947 0H58.2765Z" fill="white"/>
<path d="M109.976 31.7949C107.209 31.7949 104.782 31.1179 102.696 29.7641C100.611 28.3966 98.9814 26.5231 97.809 24.1436C96.6503 21.7641 96.0709 19.0496 96.0709 16C96.0709 12.9504 96.6503 10.2359 97.809 7.85641C98.9814 5.47692 100.611 3.61026 102.696 2.25641C104.782 0.888889 107.209 0.205128 109.976 0.205128C111.353 0.205128 112.648 0.451282 113.861 0.94359C115.088 1.4359 116.145 2.11966 117.031 2.99487L119.505 0.615384H119.587V9.02564H119.505C119.505 7.35727 119.069 5.87351 118.196 4.57436C117.324 3.27521 116.192 2.25641 114.802 1.51795C113.411 0.779487 111.939 0.410256 110.385 0.410256C108.613 0.410256 107.106 0.868376 105.866 1.78462C104.639 2.68718 103.651 3.89744 102.901 5.41539C102.165 6.91966 101.626 8.59487 101.285 10.441C100.945 12.2735 100.774 14.1265 100.774 16C100.774 17.8598 100.945 19.7128 101.285 21.559C101.626 23.4051 102.165 25.0872 102.901 26.6051C103.651 28.1094 104.639 29.3197 105.866 30.2359C107.106 31.1385 108.613 31.5897 110.385 31.5897C111.803 31.5897 113.091 31.3641 114.25 30.9128C115.422 30.4479 116.431 29.812 117.276 29.0051C118.121 28.1983 118.769 27.2821 119.219 26.2564C119.682 25.2171 119.914 24.1231 119.914 22.9744H119.996V31.3846H119.914L117.644 28.8205C116.758 29.7368 115.654 30.4615 114.332 30.9949C113.023 31.5282 111.571 31.7949 109.976 31.7949Z" fill="white"/>
<path d="M77.212 31.3846V31.3026H81.7107V0.697437H77.6005C76.4009 0.697437 75.4125 0.929916 74.6355 1.39487C73.8584 1.84616 73.245 2.48889 72.7951 3.32308C72.3452 4.14359 72.0248 5.11453 71.834 6.2359C71.6568 7.34359 71.5682 8.54701 71.5682 9.84615H71.4864V0.615384H95.8204V9.84615H95.7182C95.7182 8.54701 95.6227 7.34359 95.4319 6.2359C95.2546 5.11453 94.9411 4.14359 94.4912 3.32308C94.0414 2.48889 93.4211 1.84616 92.6304 1.39487C91.8533 0.929916 90.865 0.697437 89.6653 0.697437H85.596V31.3026H90.0947V31.3846H77.212Z" fill="white"/>
</svg>
