<svg id="Notification--Streamline-Carbon" xmlns="http://www.w3.org/2000/svg" viewBox="0 0 20 20" height="20" width="20">
  <desc>
    Notification Streamline Icon: https://streamlinehq.com
  </desc>
  <defs></defs>
  <path d="M17.9419375 12.058125 16.25 10.366187499999999V8.125a6.2585 6.2585 0 0 0 -5.625 -6.218249999999999V0.625h-1.25v1.2817500000000002A6.2585 6.2585 0 0 0 3.75 8.125v2.2411875L2.0580625 12.058125A0.625 0.625 0 0 0 1.875 12.5v1.875a0.625 0.625 0 0 0 0.625 0.625h4.375v0.48550000000000004a3.22 3.22 0 0 0 2.8125 3.2491874999999997A3.1285625 3.1285625 0 0 0 13.125 15.625v-0.625h4.375a0.625 0.625 0 0 0 0.625 -0.625v-1.875a0.625 0.625 0 0 0 -0.1830625 -0.44187499999999996ZM11.875 15.625a1.875 1.875 0 0 1 -3.75 0v-0.625h3.75Zm5 -1.875H3.125v-0.9911875000000001l1.691875 -1.6919375A0.625 0.625 0 0 0 5 10.625v-2.5a5 5 0 0 1 10 0v2.5a0.625 0.625 0 0 0 0.18312499999999998 0.44187499999999996L16.875 12.758812500000001Z" fill="#000000" stroke-width="0.625"></path>
  <path id="_Transparent_Rectangle_" d="M0 0h20v20H0Z" fill="none" stroke-width="0.625"></path>
</svg>